<?xml version="1.0" encoding="iso-8859-1"?>
<!-- Generator: Adobe Illustrator 19.0.0, SVG Export Plug-In . SVG Version: 6.00 Build 0)  -->
<svg xmlns="http://www.w3.org/2000/svg" xmlns:xlink="http://www.w3.org/1999/xlink" version="1.1" id="Capa_1" x="0px" y="0px" viewBox="0 0 512.002 512.002" style="enable-background:new 0 0 512.002 512.002;" xml:space="preserve" width="512px" height="512px">
<g>
	<g>
		<path d="M424.004,391.003c-5.523,0-10,4.477-10,10v0.475c0,5.523,4.477,10,10,10s10-4.477,10-10v-0.475    C434.004,395.48,429.527,391.003,424.004,391.003z" fill="#757a7d"/>
	</g>
</g>
<g>
	<g>
		<path d="M143.468,391.1h-24.751c-5.523,0-10,4.477-10,10s4.477,10,10,10h24.751c5.523,0,10-4.477,10-10    S148.991,391.1,143.468,391.1z" fill="#757a7d"/>
	</g>
</g>
<g>
	<g>
		<path d="M268.335,315.109h-24.751c-5.523,0-10,4.477-10,10s4.477,10,10,10h24.751c5.523,0,10-4.477,10-10    S273.858,315.109,268.335,315.109z" fill="#757a7d"/>
	</g>
</g>
<g>
	<g>
		<path d="M375.217,406.1h-24.75c-5.523,0-10,4.477-10,10s4.477,10,10,10h24.75c5.523,0,10-4.477,10-10S380.74,406.1,375.217,406.1z    " fill="#757a7d"/>
	</g>
</g>
<g>
	<g>
		<path d="M451.433,441.113h-17.429v-10.55c0-5.523-4.477-10-10-10s-10,4.477-10,10v10.55h-64.683c-1.221,0-2.429,0.062-3.619,0.183    c-1.19,0.121-2.363,0.301-3.516,0.538c-0.576,0.118-1.147,0.25-1.713,0.396c-5.255,1.355-10.037,3.895-14.056,7.307h-25.54v-38.55    c0-23.503-19.122-42.625-42.625-42.625c-23.503,0-42.624,19.122-42.624,42.625v38.55h-30.042c-4.019-3.412-8.8-5.952-14.056-7.307    c-0.566-0.146-1.137-0.278-1.713-0.396c-1.153-0.237-2.326-0.417-3.515-0.538c-1.19-0.121-2.397-0.183-3.619-0.183H98v-4.842    h14.75c5.523,0,10-4.477,10-10s-4.477-10-10-10H98v-54.844c0-32.326,13.302-67.132,34.393-92.54v0.565v55.624v25.512    c0,20.519,16.693,37.212,37.212,37.212h27.211c5.523,0,10-4.477,10-10V236.332c2.244,0.791,4.547,1.456,6.897,1.996    c0.127,0.029,0.254,0.06,0.382,0.088c0.67,0.15,1.344,0.29,2.021,0.418c0.268,0.051,0.537,0.097,0.806,0.144    c0.612,0.108,1.223,0.216,1.84,0.306c0.837,0.123,1.676,0.231,2.518,0.321c0.364,0.038,0.732,0.064,1.097,0.096    c0.636,0.057,1.273,0.108,1.911,0.146c0.355,0.021,0.712,0.036,1.069,0.051c0.292,0.012,0.583,0.034,0.875,0.042l7.11,45.329    c0.763,4.865,4.955,8.45,9.879,8.45h25.477c4.925,0,9.116-3.585,9.879-8.45l7.113-45.349c0.167-0.006,0.333-0.021,0.5-0.028    c0.361-0.016,0.72-0.04,1.079-0.061c0.603-0.038,1.205-0.083,1.806-0.138c0.435-0.039,0.87-0.077,1.303-0.125    c0.471-0.052,0.94-0.117,1.409-0.18c1.2-0.159,2.391-0.347,3.57-0.571c0.075-0.014,0.15-0.026,0.224-0.04    c0.745-0.144,1.483-0.307,2.218-0.476c0.102-0.024,0.204-0.047,0.306-0.071c2.385-0.562,4.723-1.246,6.998-2.065V377.8    c0,5.523,4.477,10,10,10h27.212c20.519,0,37.211-16.693,37.211-37.212v-81.136v-0.669c21.142,25.415,34.476,60.264,34.476,92.645    c0,5.523,4.477,10,10,10s10-4.477,10-10c0-22.537-5.482-46.225-15.854-68.505c-9.453-20.306-22.351-38.097-37.49-51.819    c1.727-7.535,5.364-14.349,10.388-19.889c0.191-0.174,0.383-0.349,0.562-0.539c8.402-8.941,20.19-14.07,32.342-14.07    c5.523,0,10-4.477,10-10c0-1.594-0.031-3.184-0.078-4.772c-0.007-0.225-0.012-0.451-0.019-0.676    c-0.054-1.589-0.132-3.174-0.233-4.756c-0.008-0.126-0.017-0.253-0.025-0.379c-1.92-29.111-11.748-56.928-28.726-81.016    c-2.096-2.974-4.295-5.855-6.568-8.663c-0.017-0.021-0.029-0.045-0.047-0.067c-0.034-0.042-0.07-0.083-0.105-0.125    c-0.942-1.161-1.908-2.298-2.879-3.429c-0.191-0.222-0.378-0.448-0.57-0.669c-1.072-1.235-2.165-2.448-3.271-3.647    c-0.071-0.077-0.141-0.155-0.213-0.232c-10.77-11.628-23.137-21.545-36.765-29.491c-0.031-0.018-0.061-0.036-0.092-0.054    c-1.373-0.799-2.758-1.578-4.156-2.337c-0.306-0.167-0.614-0.331-0.922-0.496c-1.204-0.644-2.414-1.277-3.636-1.89    c-0.564-0.284-1.134-0.558-1.702-0.835c-1.027-0.5-2.054-1.001-3.093-1.48c-0.88-0.407-1.771-0.793-2.659-1.185    c-0.78-0.343-1.555-0.696-2.342-1.027c-1.102-0.464-2.215-0.901-3.327-1.34c-7.892-6.894-18.203-11.084-29.48-11.084h-13.357    l0.49-2.884c0.567-3.34-0.596-6.741-3.09-9.034L262.729,2.639c-3.827-3.519-9.711-3.519-13.538,0l-24.357,22.398    c-2.494,2.293-3.657,5.694-3.09,9.034l0.49,2.884h-13.445c-11.289,0-21.609,4.207-29.494,11.125    c-1.108,0.438-2.217,0.875-3.315,1.338c-0.776,0.327-1.539,0.675-2.309,1.014c-0.899,0.396-1.799,0.788-2.69,1.2    c-1.028,0.475-2.043,0.97-3.059,1.466c-0.578,0.283-1.158,0.562-1.732,0.852c-1.21,0.608-2.407,1.236-3.599,1.873    c-0.32,0.172-0.64,0.342-0.958,0.516c-1.385,0.753-2.757,1.526-4.117,2.318c-0.041,0.024-0.083,0.049-0.124,0.073    c-13.602,7.941-25.946,17.846-36.698,29.456c-0.072,0.077-0.143,0.156-0.214,0.233c-1.107,1.201-2.202,2.415-3.275,3.651    c-0.184,0.211-0.362,0.428-0.545,0.64c-0.981,1.143-1.956,2.291-2.907,3.463c-0.028,0.035-0.058,0.068-0.086,0.103    c-0.015,0.018-0.025,0.038-0.039,0.056c-2.286,2.824-4.496,5.722-6.603,8.713c-16.958,24.076-26.776,51.877-28.697,80.968    c-0.009,0.131-0.018,0.261-0.026,0.392c-0.1,1.578-0.179,3.16-0.232,4.746c-0.008,0.23-0.013,0.46-0.02,0.689    c-0.047,1.585-0.078,3.173-0.078,4.764c0,5.523,4.477,10,10,10c12.152,0,23.94,5.128,32.342,14.07    c0.178,0.189,0.368,0.363,0.559,0.537c5.04,5.556,8.684,12.394,10.405,19.956c-15.122,13.727-28.005,31.514-37.445,51.807    c-10.357,22.265-15.831,45.935-15.831,68.453v79.686H60.57c-19.544,0-35.444,15.9-35.444,35.444v25.445c0,5.523,4.477,10,10,10    h441.751c5.523,0,10-4.477,10-10v-25.445C486.877,457.013,470.977,441.113,451.433,441.113z M186.815,367.8h-17.211    c-9.491,0-17.212-7.721-17.212-17.212v-15.512h34.423V367.8z M186.816,315.075h-34.423v-35.624h34.423V315.075z M260.145,273.721    h-8.37l-8.061-51.391h24.492L260.145,273.721z M359.528,350.588c0,9.49-7.721,17.212-17.211,17.212h-17.212v-32.724h34.423    V350.588z M359.528,315.075h-34.423v-35.624h34.423V315.075z M385.507,112.579c8.204,10.846,14.834,22.848,19.622,35.624h-23.378    c0.066-0.943,0.111-1.892,0.111-2.852v-25.733c0-2.435-0.329-4.793-0.935-7.039H385.507z M348.294,78.351    c1.243,0.783,2.472,1.591,3.691,2.414c0.63,0.426,1.256,0.858,1.879,1.294c0.782,0.546,1.555,1.106,2.326,1.668    c1.434,1.048,2.848,2.119,4.238,3.217c0.333,0.262,0.669,0.519,1,0.784c0.981,0.79,1.949,1.593,2.907,2.408    c0.143,0.121,0.284,0.243,0.426,0.365c0.797,0.684,1.583,1.379,2.365,2.079h-12.3h-6.905V81.832c0-0.047-0.003-0.093-0.004-0.139    c-0.002-0.646-0.019-1.291-0.049-1.935c-0.017-0.373-0.047-0.743-0.073-1.113c-0.016-0.214-0.023-0.429-0.042-0.643    C347.935,78.116,348.112,78.236,348.294,78.351z M361.862,119.618v25.733c0,3.072-0.691,5.981-1.903,8.601    c-0.003,0.006-0.007,0.011-0.009,0.016c-2.415,5.166-6.827,9.019-12.03,10.815v-52.205h6.905    C358.705,112.579,361.862,115.737,361.862,119.618z M341.349,203.691c0.189-0.385,0.368-0.775,0.549-1.164    c0.233-0.499,0.462-1.001,0.682-1.506c0.149-0.342,0.296-0.685,0.439-1.03c0.267-0.643,0.521-1.291,0.767-1.942    c0.085-0.225,0.175-0.447,0.257-0.673c0.327-0.898,0.634-1.804,0.921-2.717c0.056-0.18,0.107-0.362,0.161-0.542    c0.229-0.753,0.445-1.51,0.646-2.271c0.07-0.264,0.138-0.529,0.204-0.795c0.188-0.75,0.362-1.504,0.523-2.261    c0.044-0.208,0.093-0.414,0.135-0.623c0.18-0.889,0.346-1.783,0.488-2.682c11.466-1.655,21.395-8.12,27.667-17.283h36.17    c1.335,6.299,2.248,12.719,2.685,19.227c-12.81,2.069-24.359,7.939-33.472,16.398h-38.886    C341.307,203.782,341.327,203.736,341.349,203.691z M365.57,223.827c-2.882,6.16-4.812,12.847-5.611,19.875    c-0.006,0.046-0.02,0.09-0.025,0.137c-0.011,0.101-0.015,0.202-0.026,0.303c-0.099,0.928-0.177,1.862-0.236,2.802    c-0.015,0.231-0.035,0.461-0.048,0.691c-0.059,1.124-0.096,2.254-0.096,3.393v8.423h-34.423v-34.897    c0.282-0.239,0.561-0.482,0.839-0.727H365.57z M255.96,23.585l13.589,12.496l-5.765,33.965h-15.648l-5.765-33.965L255.96,23.585z     M184.1,79.589c0.01-0.122,0.016-0.247,0.028-0.369c0.02-0.203,0.051-0.404,0.077-0.606c0.027-0.212,0.049-0.426,0.081-0.636    c0.022-0.145,0.052-0.287,0.077-0.431c0.045-0.265,0.088-0.531,0.142-0.793c0.997-4.86,3.452-9.313,7.153-12.867    c0.128-0.122,0.243-0.253,0.363-0.381c4.417-4.064,10.306-6.551,16.767-6.551h16.84l4.203,24.764    c0.816,4.809,4.982,8.327,9.859,8.327h32.54c4.877,0,9.043-3.518,9.859-8.327l4.203-24.764h16.751    c6.465,0,12.36,2.48,16.788,6.537c0.119,0.126,0.235,0.256,0.361,0.377c2.799,2.675,4.891,5.86,6.187,9.347    c0.002,0.005,0.004,0.01,0.006,0.016c0.111,0.299,0.211,0.602,0.31,0.906c0.031,0.095,0.066,0.189,0.096,0.285    c0.06,0.193,0.111,0.389,0.167,0.583c0.377,1.321,0.651,2.684,0.805,4.084c0.008,0.068,0.019,0.135,0.026,0.203    c0.011,0.106,0.015,0.214,0.024,0.32c0.065,0.733,0.104,1.472,0.104,2.218v93.496c0,0.838-0.029,1.673-0.076,2.505    c-0.002,0.035-0.005,0.068-0.007,0.103c-0.008,0.144-0.022,0.286-0.032,0.429c-0.049,0.707-0.11,1.413-0.193,2.114    c-0.013,0.109-0.027,0.217-0.04,0.326c-1.087,8.635-4.716,16.78-10.356,23.406c-0.082,0.096-0.163,0.191-0.246,0.286    c-0.444,0.513-0.905,1.014-1.373,1.508c-0.145,0.153-0.288,0.308-0.435,0.459c-1.804,1.85-3.773,3.559-5.903,5.095    c-0.143,0.103-0.27,0.222-0.407,0.332c-0.74,0.519-1.497,1.015-2.269,1.49c-0.113,0.062-0.233,0.11-0.343,0.177    c-5.32,3.22-11.238,5.259-17.358,6.04l0.897-5.717c0.453-2.888-0.38-5.829-2.28-8.05c-1.9-2.221-4.676-3.5-7.599-3.5h-47.874    c-2.923,0-5.699,1.279-7.599,3.5c-1.9,2.221-2.733,5.162-2.28,8.05l0.908,5.785c-6.271-0.723-12.334-2.783-17.765-6.092    c-0.097-0.059-0.202-0.1-0.301-0.156c-0.675-0.417-1.34-0.849-1.991-1.3c-0.127-0.1-0.244-0.209-0.376-0.304    c-2.166-1.544-4.169-3.265-5.996-5.134c-0.085-0.086-0.164-0.176-0.247-0.263c-0.506-0.526-1-1.061-1.478-1.609    c-0.09-0.103-0.176-0.207-0.265-0.31c-0.503-0.588-0.994-1.184-1.464-1.796c-0.019-0.025-0.039-0.05-0.058-0.075    c-4.724-6.168-7.77-13.497-8.756-21.234c-0.018-0.139-0.035-0.279-0.051-0.418c-0.078-0.665-0.136-1.334-0.184-2.005    c-0.014-0.196-0.032-0.392-0.043-0.589c-0.045-0.794-0.072-1.592-0.073-2.392c0-0.013-0.001-0.027-0.001-0.04l-0.002-94.205    C184.001,81.019,184.038,80.302,184.1,79.589z M184.002,175.854l0.001,0.078c0-0.007-0.001-0.015-0.001-0.022V175.854z     M185.613,223.827c0.397,0.352,0.798,0.701,1.204,1.044v34.58h-0.001h-34.423v-8.423c0-1.129-0.037-2.25-0.094-3.365    c-0.012-0.232-0.033-0.463-0.048-0.695c-0.058-0.921-0.133-1.837-0.229-2.747c-0.011-0.101-0.014-0.203-0.025-0.305    c-0.005-0.049-0.02-0.096-0.026-0.145c-0.795-7.053-2.728-13.764-5.619-19.944H185.613z M147.292,90.387    c0.057-0.049,0.113-0.097,0.17-0.146c1.015-0.866,2.043-1.718,3.084-2.556c0.114-0.092,0.231-0.18,0.346-0.271    c1.619-1.294,3.274-2.547,4.953-3.771c0.709-0.516,1.419-1.031,2.137-1.533c0.657-0.461,1.318-0.916,1.984-1.366    c1.156-0.78,2.322-1.545,3.501-2.289c0.23-0.146,0.454-0.298,0.685-0.442c-0.028,0.338-0.042,0.679-0.063,1.018    c-0.012,0.193-0.026,0.385-0.036,0.578c-0.033,0.708-0.054,1.419-0.054,2.133v10.836h-6.905h-12.296    C145.623,91.841,146.45,91.107,147.292,90.387z M164.001,112.58v52.204c-5.203-1.796-9.615-5.649-12.03-10.815    c-0.004-0.008-0.009-0.014-0.012-0.022c-1.211-2.618-1.901-5.526-1.901-8.595v-25.733c0-3.881,3.158-7.039,7.039-7.039H164.001z     M126.417,112.579h4.575c-0.606,2.246-0.935,4.604-0.935,7.039v25.733c0,0.96,0.046,1.909,0.111,2.852h-23.374    C111.583,135.428,118.214,123.425,126.417,112.579z M98.28,187.43c0.438-6.508,1.351-12.927,2.684-19.226h36.168    c6.255,9.139,16.15,15.597,27.582,17.271c0.005,0.031,0.011,0.061,0.016,0.092c0.024,0.158,0.055,0.313,0.08,0.47    c0.128,0.8,0.27,1.595,0.428,2.388c0.059,0.299,0.123,0.596,0.187,0.893c0.146,0.681,0.303,1.358,0.47,2.033    c0.069,0.276,0.134,0.554,0.207,0.829c0.24,0.913,0.495,1.822,0.775,2.722c0.029,0.092,0.062,0.181,0.091,0.273    c0.254,0.802,0.525,1.598,0.81,2.389c0.117,0.324,0.24,0.644,0.362,0.965c0.21,0.553,0.426,1.103,0.652,1.65    c0.15,0.366,0.301,0.731,0.458,1.093c0.212,0.489,0.435,0.974,0.66,1.458c0.169,0.366,0.331,0.736,0.507,1.098h-38.665    C122.639,195.369,111.09,189.499,98.28,187.43z M178.128,492.001h-133v-15.444h-0.001c0-8.516,6.928-15.444,15.444-15.444H78    v10.888c0,5.523,4.477,10,10,10s10-4.477,10-10v-10.888h30.889v10.888c0,5.523,4.477,10,10,10s10-4.477,10-10v-10.888h13.795    c2.661,0,5.167,0.677,7.355,1.867c1.525,0.829,2.882,1.92,4.043,3.193c0.019,0.022,0.034,0.047,0.053,0.068    c0.959,1.062,1.757,2.237,2.381,3.49c0.011,0.022,0.021,0.045,0.032,0.067c0.19,0.386,0.363,0.78,0.52,1.18    c0.028,0.071,0.052,0.144,0.079,0.216c0.135,0.359,0.258,0.723,0.366,1.091c0.038,0.133,0.069,0.27,0.104,0.404    c0.084,0.318,0.164,0.637,0.227,0.961c0.043,0.225,0.071,0.455,0.105,0.683c0.036,0.246,0.079,0.492,0.104,0.74    c0.047,0.489,0.075,0.983,0.075,1.484V492.001z M215.629,492.001h-17.502v-15.444h0c0-0.015-0.001-0.029-0.001-0.044    c-0.001-0.582-0.015-1.163-0.044-1.742c-0.089-1.782-0.312-3.529-0.655-5.234h18.202V492.001z M280.877,492.002h-45.249v-81.014    c0-12.476,10.149-22.625,22.624-22.625h0.001c12.475,0,22.624,10.149,22.624,22.625V492.002z M313.923,474.772    c-0.029,0.579-0.043,1.16-0.044,1.742c0,0.015-0.001,0.029-0.001,0.043v15.444h-12.999v-22.463h13.699    C314.234,471.242,314.011,472.989,313.923,474.772z M466.879,492.002h-0.002h-133v-15.444c0-0.501,0.028-0.995,0.075-1.483    c0.025-0.249,0.068-0.495,0.104-0.742c0.033-0.228,0.061-0.457,0.104-0.681c0.063-0.325,0.144-0.646,0.228-0.966    c0.034-0.133,0.065-0.267,0.103-0.398c0.108-0.37,0.232-0.736,0.368-1.097c0.026-0.07,0.05-0.141,0.077-0.21    c0.158-0.402,0.331-0.798,0.523-1.186c0.01-0.02,0.019-0.04,0.029-0.06c0.625-1.254,1.423-2.43,2.383-3.492    c0.02-0.023,0.035-0.049,0.056-0.072c1.16-1.271,2.516-2.361,4.04-3.19c2.188-1.19,4.694-1.867,7.356-1.867h13.794v10.888    c0,5.523,4.477,10,10,10s10-4.477,10-10v-10.888h30.889v10.888c0,5.523,4.477,10,10,10s10-4.477,10-10v-10.888h17.429    c8.516,0,15.444,6.928,15.444,15.444V492.002z" fill="#757a7d"/>
	</g>
</g>
<g>
	<g>
		<path d="M266.178,163.036h-7.812v-49.625c0-5.523-4.477-10-10-10h-35.625c-5.523,0-10,4.477-10,10s4.477,10,10,10h25.625v49.625    c0,5.523,4.477,10,10,10h17.812c5.523,0,10-4.477,10-10S271.701,163.036,266.178,163.036z" fill="#757a7d"/>
	</g>
</g>
<g>
	<g>
		<path d="M299.18,103.411h-20.813c-5.523,0-10,4.477-10,10s4.477,10,10,10h20.813c5.523,0,10-4.477,10-10    S304.703,103.411,299.18,103.411z" fill="#757a7d"/>
	</g>
</g>
<g>
</g>
<g>
</g>
<g>
</g>
<g>
</g>
<g>
</g>
<g>
</g>
<g>
</g>
<g>
</g>
<g>
</g>
<g>
</g>
<g>
</g>
<g>
</g>
<g>
</g>
<g>
</g>
<g>
</g>
</svg>
